<svg xmlns="http://www.w3.org/2000/svg" viewBox="0 0 921.44 194.45"><defs><style>.cls-1{fill:#181716;}</style></defs><g id="Calque_2" data-name="Calque 2"><g id="Calque_1-2" data-name="Calque 1"><path class="cls-1" d="M896.62,55.79c1.38-7.58,5.43-10.34,9-10.34,4,0,6.12,3.79,6.12,7.24,0,3.1-.95,3.1-5.26,3.1Zm10.6-13.44c-11.28,0-19,10.08-19,21.46,0,10.68,6.55,19.82,16.63,19.82,6.46,0,12.58-3.8,16.63-10.77l-1.38-1.64a13.2,13.2,0,0,1-10.25,4.65c-8,0-13.36-6.89-13.36-17.49h23.27l1-1v-.51c0-8.62-5.17-14.57-13.53-14.57m-56.52,0c-5,2.33-9.91,4.31-14.13,5.09V49.5l3.18.61c1.64.26,2.24,1.29,2.24,3.7V77.25c0,1.81-.86,2.5-4.65,2.5h-1v2.58c2.5,0,6.21-.34,10.6-.34s9.83.34,12.32.34V79.75h-3.18c-3.62,0-4.48-.78-4.48-1.9V55.1c0-4.13,2.58-5.86,4.74-5.86,2.67,0,2.67,3.28,6,3.28,2.67,0,4.82-1.81,4.82-5.08,0-3.71-2.58-5.09-5.51-5.09-3.71,0-7.5,2.76-9.91,6.46h-.17V42.87ZM792.19,20c-2.07,0-3,1.12-3,3.27,0,1.29,1.46,2.59,2.49,3.19l13.27,8.36h3.45L796.24,22.53c-2.15-2.15-3.27-2.58-4-2.58m-.09,35.84c1.38-7.58,5.43-10.34,9-10.34,4,0,6.12,3.79,6.12,7.24,0,3.1-.95,3.1-5.26,3.1Zm10.6-13.44c-11.28,0-19,10.08-19,21.46,0,10.68,6.55,19.82,16.63,19.82,6.46,0,12.58-3.8,16.63-10.77l-1.38-1.64a13.2,13.2,0,0,1-10.25,4.65c-8,0-13.36-6.89-13.36-17.49H815.2l1-1v-.51c0-8.62-5.17-14.57-13.53-14.57m-47,0c-1.81.78-4.22,2-6.2,2.67-2.42.86-5,1.73-7.59,2.42V49.5l3.28,1c1.2.35,1.81.69,1.81,2.16V77c0,1.81-.61,2.76-3.54,2.76H742v2.58c3.54-.17,7-.34,10.34-.34s6.3.17,9.83.34V79.75h-2.07c-3.1,0-3.36-1-3.36-2.24V43.13Zm-3.88-22.57A5.26,5.26,0,1,0,757.12,25a5.27,5.27,0,0,0-5.26-5.25M691.63,41.92a65.28,65.28,0,0,1-14,5.26v2.67l3.53,1c1.29.35,1.46.86,1.46,1.73v24c0,1.64-.34,2.41-3.7,2.41h-1.29v3.36c3.53-.17,7.06-.34,10.59-.34,3.19,0,6.72.17,10.09.34V79h-1.64c-3.36,0-3.71-.51-3.71-2V51.92c2.07-1.3,4.83-2.76,7.42-2.76,3.79,0,6,2.24,6,6.63V77.25c0,1-1,1.72-3.1,1.72h-1.9v3.36c3.1-.17,7.75-.34,10.51-.34,3.27,0,6.64.17,10,.34V79h-1.64c-3.28,0-3.53-.86-3.53-2.15V53.38c0-6.81-3.19-11.29-11-11.29-4.91,0-9,3.11-12.84,5.86V43Zm-64.28,0a65.28,65.28,0,0,1-14,5.26v2.67l3.53,1c1.29.35,1.46.86,1.46,1.73v24c0,1.64-.34,2.41-3.7,2.41h-1.29v3.36c3.53-.17,7.06-.34,10.59-.34,3.19,0,6.72.17,10.08.34V79h-1.63c-3.36,0-3.71-.51-3.71-2V51.92c2.07-1.3,4.83-2.76,7.41-2.76,3.8,0,6,2.24,6,6.63V77.25c0,1-1,1.72-3.11,1.72h-1.89v3.36c3.1-.17,7.75-.34,10.51-.34,3.27,0,6.63.17,10,.34V79H656c-3.28,0-3.54-.86-3.54-2.15V53.38c0-6.81-3.18-11.29-10.94-11.29-4.91,0-9,3.11-12.84,5.86V43ZM561,63c0-10.77,2.59-17.58,9.82-17.58,8.45,0,10.52,12.76,10.52,19.13,0,10.6-3.28,15.94-9.74,15.94-6.81,0-10.6-7.06-10.6-17.49m10.08-20.68c-11.8,0-20.59,8.7-20.59,20.6,0,12.06,8.62,20.68,20.59,20.68a20.88,20.88,0,0,0,20.77-21.2c0-11.81-8-20.08-20.77-20.08m-56,0c-8.18,0-13.78,5-13.78,12.32,0,13.27,17.32,11.9,17.32,20.17,0,3.79-3.11,5.68-6.47,5.68-4.56,0-7.84-3.79-8.44-9.22l-2.41.52.77,9.57c2.93,1,6,2.24,10.17,2.24,8.45,0,14.65-4.4,14.65-12.58,0-13.27-17.84-11-17.84-20.43,0-3.36,2.93-5.17,5.86-5.17,5.52,0,7.33,3.71,7.76,8.53l2.41-.43a57.09,57.09,0,0,1,.17-9.13,27.86,27.86,0,0,0-10.17-2.07m-49.89,0c-8.18,0-13.79,5-13.79,12.32,0,13.27,17.32,11.9,17.32,20.17,0,3.79-3.1,5.68-6.46,5.68-4.56,0-7.84-3.79-8.44-9.22l-2.42.52.78,9.57c2.93,1,6,2.24,10.17,2.24,8.44,0,14.65-4.4,14.65-12.58,0-13.27-17.84-11-17.84-20.43,0-3.36,2.93-5.17,5.86-5.17,5.51,0,7.32,3.71,7.75,8.53l2.42-.43a54.8,54.8,0,0,1,.17-9.13,27.9,27.9,0,0,0-10.17-2.07m-42.39,0c-1.81.78-4.23,2-6.21,2.67-2.41.86-5,1.73-7.58,2.42V49.5l3.27,1c1.21.35,1.81.69,1.81,2.16V77c0,1.81-.6,2.76-3.53,2.76H409v2.58c3.53-.17,7-.34,10.34-.34s6.29.17,9.82.34V79.75H427.1c-3.11,0-3.37-1-3.37-2.24V43.13Zm-3.88-22.57a5.26,5.26,0,1,0,0,10.51,5.26,5.26,0,0,0,0-10.51M359,42.35a59,59,0,0,1-14.65,2.5v2.07l3.36.95c1.56.43,2.07.77,2.07,2.15V73.8c0,5.52,2.93,9.83,10.43,9.83,4.39,0,9-2.76,13.7-6.81v6.12l.86.69c4.22-1.73,9.13-2.42,13.7-3.19V78.37h-2.41c-1.9,0-2.5-.6-2.5-3.1V50a52.05,52.05,0,0,1,.43-7.15l-.86-.52c-2.93,1.21-8.36,2.07-15.6,2.5v2.07l4.31,1.38c1.73.51,2.07,1.12,2.07,2.58V73.11c-2,1.64-4.82,3.62-8.27,3.62-3.88,0-6.21-2.15-6.21-6.89V50.11c0-1.21.09-3.11.43-7.24Zm-69.79,9.31h5.6c8.7,0,14.91,4.56,14.91,14,0,7.58-5.35,13.61-12.85,13.61-5.94,0-7.66-1-7.66-6.89Zm0-26.37h5.34c7.67,0,11.63,4.05,11.63,12.07,0,5.34-2.5,11.2-12.75,11.2h-4.22Zm-18.62-.52h1.55c5.18,0,6,2.33,6,5.18v44.8c0,2.84-1,5-6,5h-1.55v2.58c3.79,0,9.74-.34,15.26-.34,5.17,0,11,.34,14.9.34,11.72,0,20.51-8,20.51-17.06,0-9.48-8.36-15.59-19.22-15.42v-.17c10.35-2,15.69-6.81,15.69-14,0-8.62-7-13.53-20-13.53-3.88,0-8.88.34-13.7.34s-9.66-.34-13.45-.34Zm-84.87,31c1.38-7.58,5.43-10.34,9-10.34,4,0,6.11,3.79,6.11,7.24,0,3.1-.94,3.1-5.25,3.1Zm10.6-13.44c-11.29,0-19.05,10.08-19.05,21.46,0,10.68,6.55,19.82,16.64,19.82,6.46,0,12.57-3.8,16.63-10.77l-1.38-1.64a13.23,13.23,0,0,1-10.26,4.65c-8,0-13.35-6.89-13.35-17.49h23.26l1-1v-.51c0-8.62-5.18-14.57-13.53-14.57m-94.79,0c-2.24.95-4.22,2-6.2,2.67-2.15.78-4.48,1.55-7.58,2.42V49.5l3,.87c1.3.34,2.07.68,2.07,2.15V76.91c0,1.89-.6,2.84-3.62,2.84H87.77v2.58c3.1-.17,6-.34,10.16-.34,3.28,0,6.38.17,9.91.34V79.75h-1.63c-3,0-3.71-1.21-3.71-2.67V51.92a14,14,0,0,1,7.84-3.19c4.57,0,6.64,2.5,6.64,7.06V77.08c0,2.07-1.47,2.67-3.71,2.67h-1.46v2.58c3.36-.17,6.72-.34,10.25-.34,3.36,0,5.95.17,9.65.34V79.75h-1.29c-2.67,0-3.79-.69-3.79-2.76V51.31c2.07-1.12,5.17-2.58,7.84-2.58,4.57,0,6.63,2.5,6.63,7.06V77.08c0,2-.94,2.67-4.13,2.67h-1v2.58c3.36-.17,6.81-.34,10.17-.34s6,.17,9.65.34v-2.5h-.94c-2.42,0-4.05-.43-4.05-2.67V53.29c0-6.89-4.31-10.94-10.6-10.94-3.28,0-6.29,1.21-14.13,6.38-1.73-4.4-5.43-6.38-10.17-6.38-4.48,0-9.14,3.53-13.36,6.29V43.13Z"/><path class="cls-1" d="M533,164.5c-5.94,0-10,3.63-10,8.94,0,9.63,12.57,8.63,12.57,14.63,0,2.75-2.25,4.13-4.69,4.13-3.31,0-5.69-2.75-6.13-6.69l-1.75.37.57,6.94a20.67,20.67,0,0,0,7.37,1.63c6.13,0,10.63-3.19,10.63-9.13,0-9.63-12.94-8-12.94-14.82,0-2.44,2.13-3.75,4.25-3.75,4,0,5.32,2.69,5.63,6.19l1.75-.31a41.63,41.63,0,0,1,.13-6.63,20.14,20.14,0,0,0-7.38-1.5m-18.89,0c-1.31.56-3.06,1.44-4.5,1.94-1.75.62-3.63,1.25-5.5,1.75v1.5l2.38.69c.87.24,1.31.5,1.31,1.56v17.7c0,1.31-.44,2-2.57,2h-1.12v1.87c2.56-.12,5.07-.25,7.5-.25s4.57.13,7.13.25v-1.87h-1.5c-2.25,0-2.44-.75-2.44-1.63V165.06Zm-2.81-16.38a3.82,3.82,0,0,0-3.81,3.81,3.82,3.82,0,0,0,7.63,0,3.83,3.83,0,0,0-3.82-3.81M489.77,164.5a45.94,45.94,0,0,1-10.25,3.69v1.5l2.31.44c1.19.18,1.62.93,1.62,2.68v17c0,1.32-.62,1.82-3.37,1.82h-.69v1.87c1.81,0,4.5-.25,7.69-.25s7.13.25,8.94.25v-1.87h-2.31c-2.63,0-3.25-.57-3.25-1.38V173.75c0-3,1.87-4.25,3.44-4.25,1.94,0,1.94,2.38,4.37,2.38a3.41,3.41,0,0,0,3.51-3.69c0-2.69-1.88-3.69-4-3.69-2.69,0-5.45,2-7.2,4.69h-.12v-4.32Zm-32.83,21.63c0-3.18,3.13-4.75,6.19-5.75l3-.94v7.44c-1.43,2.07-3.31,3.32-5.37,3.32-2.44,0-3.82-1.38-3.82-4.07m7.76-21.63a6.33,6.33,0,0,0-3.76.87c-2.87,1.69-5.81,3.13-6.88,3.69a6,6,0,0,0-3.31,5.19c0,.94.5,1.44,1.19,1.44,1.06,0,4.31-.88,4.44-2.5.25-3.32,1-4.44,4.75-4.44,3,0,5,1.5,5,5.13v3.44l-8.44,2.94c-6.38,2.18-7.75,4.62-7.75,7.81,0,4.07,3.06,6.38,6.81,6.38,4,0,6.82-2.25,9.57-4.94.25,2.82,1.69,4.94,4.75,4.94s4.7-1.63,6.57-3.94l-.81-1.12a3,3,0,0,1-1.81.81c-1.82,0-1.88-2.44-1.88-4.38V172.69c0-5-2.69-8.19-8.44-8.19m-50.9-12.76h1c3.31,0,3.94,1.5,3.94,5.07v29.76c0,3.07-.63,5.07-3.44,5.07h-1.5v1.87c3.56,0,6.81-.25,10.37-.25,3.2,0,6.32.25,9.51.25v-1.87h-1.81c-4.13,0-5.13-1.76-5.13-5.51v-34h1.75c6.76,0,9.51,4.19,9.51,9.94,0,6.31-2.38,10.69-7.38,10.69H429.3v1.88c1.44,0,3.13,0,4.94-.13,7-.62,12.13-5.5,12.13-12.69,0-8.19-4.93-11.95-14.75-11.95-2.63,0-5.88.26-9.07.26s-6.63-.26-8.75-.26Z"/><path class="cls-1" d="M48,15.11,34,0,20.09,15.11l1.46,1.37L34,8.39l12.48,8.09ZM37.74,58.41H22.23l7.71-17.85ZM20.28,62.79H39.59l4.1,9.27c2.24,5.17,1.26,7.41-7.32,7.41V82.3h32V79.47c-7.81,0-9.17-2.34-11.9-8.58L35.2,22.14H33.15L12,70.89c-3,6.92-5.26,8.58-12,8.58V82.3H23.6V79.47c-8.1,0-9.56-2.15-7.32-7.41Z"/></g></g></svg>