<svg xmlns="http://www.w3.org/2000/svg" xmlns:xlink="http://www.w3.org/1999/xlink" viewBox="0 0 396.14 877.76"><defs><style>.cls-1{fill:none;}.cls-2{clip-path:url(#clip-path);}.cls-3{fill:#fff;}</style><clipPath id="clip-path" transform="translate(0 0)"><rect class="cls-1" width="396.13" height="877.76"/></clipPath></defs><g id="Calque_2" data-name="Calque 2"><g id="Calque_1-2" data-name="Calque 1"><g class="cls-2"><path class="cls-3" d="M170.74,876.12h5.32l9.72-10.27c4.4,7,11.37,11.91,20.72,11.91,20.72,0,33.37-15.22,33.37-33.74s-12.65-33.55-33.37-33.55a24.11,24.11,0,0,0-15,5.31V761.51l-35.22,4.58v5.32c12.29,0,14.49,3.12,14.49,21.45ZM217.32,844c0,13.94-4.22,25.12-13.76,25.12-6.23,0-12.09-6.78-12.09-16.13V835.22c0-9.54,5.86-16.13,12.09-16.13,9.54,0,13.76,11,13.76,24.93" transform="translate(0 0)"/><path class="cls-3" d="M218.69,435.32H128.84l44.64-101ZM117.54,460.15H229.43l23.73,52.43c13,29.24,7.34,41.93-42.38,41.93v16H396.13v-16c-45.21,0-53.12-13.24-68.94-48.55L204,230.05H192.13L69.5,506C52,545.13,39,554.51,0,554.51v16H136.75v-16c-46.9,0-55.38-12.14-42.38-41.93Z" transform="translate(0 0)"/><path class="cls-3" d="M141.59,644.72c0-12.29,9.53-18.15,16.86-18.15,8.26,0,10.28,7.52,10.28,19.43v7.71c0,18.34-2.57,21.45-7.16,21.45v5.32h42.36v-5.32c-12.29,0-14.67-3.11-14.67-21.45V643.62c0-15.58-8.8-27.32-25.3-27.32-10.82,0-18.7,4.58-25.31,13.57-3.84-8.25-11.55-13.57-22.55-13.57-10.27,0-18,4.4-22.92,10.45a37.65,37.65,0,0,0-2.57-10.45l-32.09,4.58v5.32C70.8,626.2,73,629.32,73,647.66v6.05c0,18.34-2.21,21.45-14.49,21.45v5.32h47.31v-5.32c-9.71,0-12.1-3.11-12.1-21.45v-9c0-12.29,9.53-18.15,16.87-18.15,8.25,0,10.27,7.52,10.27,19.43v7.71c0,18.34-2.57,21.45-7.16,21.45v5.32h42.36v-5.32c-12.29,0-14.48-3.11-14.48-21.45Z" transform="translate(0 0)"/><path class="cls-3" d="M294.7,645h39.79c4-12.66-6.42-30.26-26.41-30.26-19.25,0-35.39,14.12-35.39,33.56,0,18.52,15,33.74,37.05,33.74,10.26,0,21.45-5.32,27.87-12.1l-3.12-5.32a33.33,33.33,0,0,1-21.82,7.7c-9.72,0-19.44-8.62-18-27.32m1.28-8.07c1.83-8.8,6.42-13.39,13-13.39,8.07,0,11.92,5.87,11.37,13.39Z" transform="translate(0 0)"/><path class="cls-3" d="M198.06,30.76a15.38,15.38,0,1,0-15.38-15.38,15.38,15.38,0,0,0,15.38,15.38" transform="translate(0 0)"/><path class="cls-3" d="M15.38,230.05A15.38,15.38,0,1,0,0,214.67a15.38,15.38,0,0,0,15.38,15.38" transform="translate(0 0)"/><path class="cls-3" d="M380.75,230.05a15.38,15.38,0,1,0-15.38-15.38,15.37,15.37,0,0,0,15.38,15.38" transform="translate(0 0)"/></g></g></g></svg>